<mxfile host="app.diagrams.net" agent="Mozilla/5.0 (Windows NT 10.0; Win64; x64) AppleWebKit/537.36 (KHTML, like Gecko) Chrome/128.0.0.0 Safari/537.36 Edg/128.0.0.0" version="24.7.14">
  <diagram name="PÃ¡gina-1" id="BTJTq6_h5NGq-W07n0O4">
    <mxGraphModel dx="2536" dy="1925" grid="1" gridSize="10" guides="1" tooltips="1" connect="1" arrows="1" fold="1" page="1" pageScale="1" pageWidth="827" pageHeight="1169" math="0" shadow="0">
      <root>
        <mxCell id="0" />
        <mxCell id="1" parent="0" />
        <mxCell id="k2nZvTiB4ggipAi0p3M2-43" value="" style="shape=folder;fontStyle=1;spacingTop=10;tabWidth=40;tabHeight=14;tabPosition=left;html=1;whiteSpace=wrap;" vertex="1" parent="1">
          <mxGeometry x="240" y="-76" width="455" height="346" as="geometry" />
        </mxCell>
        <mxCell id="k2nZvTiB4ggipAi0p3M2-42" value="" style="shape=folder;fontStyle=1;spacingTop=10;tabWidth=40;tabHeight=14;tabPosition=left;html=1;whiteSpace=wrap;" vertex="1" parent="1">
          <mxGeometry x="-275" y="-76" width="455" height="346" as="geometry" />
        </mxCell>
        <mxCell id="k2nZvTiB4ggipAi0p3M2-1" value="Administrador" style="swimlane;fontStyle=1;align=center;verticalAlign=top;childLayout=stackLayout;horizontal=1;startSize=26;horizontalStack=0;resizeParent=1;resizeParentMax=0;resizeLast=0;collapsible=1;marginBottom=0;whiteSpace=wrap;html=1;" vertex="1" parent="1">
          <mxGeometry x="-260" y="-50" width="160" height="114" as="geometry" />
        </mxCell>
        <mxCell id="k2nZvTiB4ggipAi0p3M2-2" value="- nome: String;&lt;div&gt;- id: String;&lt;/div&gt;&lt;div&gt;- senha: String:&lt;/div&gt;" style="text;strokeColor=none;fillColor=none;align=left;verticalAlign=top;spacingLeft=4;spacingRight=4;overflow=hidden;rotatable=0;points=[[0,0.5],[1,0.5]];portConstraint=eastwest;whiteSpace=wrap;html=1;" vertex="1" parent="k2nZvTiB4ggipAi0p3M2-1">
          <mxGeometry y="26" width="160" height="54" as="geometry" />
        </mxCell>
        <mxCell id="k2nZvTiB4ggipAi0p3M2-3" value="" style="line;strokeWidth=1;fillColor=none;align=left;verticalAlign=middle;spacingTop=-1;spacingLeft=3;spacingRight=3;rotatable=0;labelPosition=right;points=[];portConstraint=eastwest;strokeColor=inherit;" vertex="1" parent="k2nZvTiB4ggipAi0p3M2-1">
          <mxGeometry y="80" width="160" height="8" as="geometry" />
        </mxCell>
        <mxCell id="k2nZvTiB4ggipAi0p3M2-4" value="+ method(type): type" style="text;strokeColor=none;fillColor=none;align=left;verticalAlign=top;spacingLeft=4;spacingRight=4;overflow=hidden;rotatable=0;points=[[0,0.5],[1,0.5]];portConstraint=eastwest;whiteSpace=wrap;html=1;" vertex="1" parent="k2nZvTiB4ggipAi0p3M2-1">
          <mxGeometry y="88" width="160" height="26" as="geometry" />
        </mxCell>
        <mxCell id="k2nZvTiB4ggipAi0p3M2-6" value="Atleta" style="swimlane;fontStyle=1;align=center;verticalAlign=top;childLayout=stackLayout;horizontal=1;startSize=26;horizontalStack=0;resizeParent=1;resizeParentMax=0;resizeLast=0;collapsible=1;marginBottom=0;whiteSpace=wrap;html=1;" vertex="1" parent="1">
          <mxGeometry x="-260" y="80" width="290" height="164" as="geometry" />
        </mxCell>
        <mxCell id="k2nZvTiB4ggipAi0p3M2-7" value="- nome: String;&lt;div&gt;- idade: int;&lt;/div&gt;&lt;div&gt;- genero: String;&lt;br&gt;&lt;div&gt;- nacionalidade: String;&lt;/div&gt;&lt;div&gt;- codIdentificador: int;&lt;/div&gt;&lt;/div&gt;&lt;div&gt;- senha: String;&lt;/div&gt;&lt;div&gt;&lt;br&gt;&lt;/div&gt;" style="text;strokeColor=none;fillColor=none;align=left;verticalAlign=top;spacingLeft=4;spacingRight=4;overflow=hidden;rotatable=0;points=[[0,0.5],[1,0.5]];portConstraint=eastwest;whiteSpace=wrap;html=1;" vertex="1" parent="k2nZvTiB4ggipAi0p3M2-6">
          <mxGeometry y="26" width="290" height="104" as="geometry" />
        </mxCell>
        <mxCell id="k2nZvTiB4ggipAi0p3M2-8" value="" style="line;strokeWidth=1;fillColor=none;align=left;verticalAlign=middle;spacingTop=-1;spacingLeft=3;spacingRight=3;rotatable=0;labelPosition=right;points=[];portConstraint=eastwest;strokeColor=inherit;" vertex="1" parent="k2nZvTiB4ggipAi0p3M2-6">
          <mxGeometry y="130" width="290" height="8" as="geometry" />
        </mxCell>
        <mxCell id="k2nZvTiB4ggipAi0p3M2-9" value="+ inscreverCompeticao(Competicao): void" style="text;strokeColor=none;fillColor=none;align=left;verticalAlign=top;spacingLeft=4;spacingRight=4;overflow=hidden;rotatable=0;points=[[0,0.5],[1,0.5]];portConstraint=eastwest;whiteSpace=wrap;html=1;" vertex="1" parent="k2nZvTiB4ggipAi0p3M2-6">
          <mxGeometry y="138" width="290" height="26" as="geometry" />
        </mxCell>
        <mxCell id="k2nZvTiB4ggipAi0p3M2-10" value="Competicao" style="swimlane;fontStyle=1;align=center;verticalAlign=top;childLayout=stackLayout;horizontal=1;startSize=26;horizontalStack=0;resizeParent=1;resizeParentMax=0;resizeLast=0;collapsible=1;marginBottom=0;whiteSpace=wrap;html=1;" vertex="1" parent="1">
          <mxGeometry x="304" y="130" width="220" height="114" as="geometry" />
        </mxCell>
        <mxCell id="k2nZvTiB4ggipAi0p3M2-11" value="- nome: String;&lt;div&gt;- ranking: list[Atleta];&lt;/div&gt;&lt;div&gt;- atleta: atleta:&lt;/div&gt;" style="text;strokeColor=none;fillColor=none;align=left;verticalAlign=top;spacingLeft=4;spacingRight=4;overflow=hidden;rotatable=0;points=[[0,0.5],[1,0.5]];portConstraint=eastwest;whiteSpace=wrap;html=1;" vertex="1" parent="k2nZvTiB4ggipAi0p3M2-10">
          <mxGeometry y="26" width="220" height="54" as="geometry" />
        </mxCell>
        <mxCell id="k2nZvTiB4ggipAi0p3M2-12" value="" style="line;strokeWidth=1;fillColor=none;align=left;verticalAlign=middle;spacingTop=-1;spacingLeft=3;spacingRight=3;rotatable=0;labelPosition=right;points=[];portConstraint=eastwest;strokeColor=inherit;" vertex="1" parent="k2nZvTiB4ggipAi0p3M2-10">
          <mxGeometry y="80" width="220" height="8" as="geometry" />
        </mxCell>
        <mxCell id="k2nZvTiB4ggipAi0p3M2-13" value="+ registraResultados(listPosicao): list[];" style="text;strokeColor=none;fillColor=none;align=left;verticalAlign=top;spacingLeft=4;spacingRight=4;overflow=hidden;rotatable=0;points=[[0,0.5],[1,0.5]];portConstraint=eastwest;whiteSpace=wrap;html=1;" vertex="1" parent="k2nZvTiB4ggipAi0p3M2-10">
          <mxGeometry y="88" width="220" height="26" as="geometry" />
        </mxCell>
        <mxCell id="k2nZvTiB4ggipAi0p3M2-14" value="Local" style="swimlane;fontStyle=1;align=center;verticalAlign=top;childLayout=stackLayout;horizontal=1;startSize=26;horizontalStack=0;resizeParent=1;resizeParentMax=0;resizeLast=0;collapsible=1;marginBottom=0;whiteSpace=wrap;html=1;" vertex="1" parent="1">
          <mxGeometry x="530" width="160" height="114" as="geometry" />
        </mxCell>
        <mxCell id="k2nZvTiB4ggipAi0p3M2-15" value="- nome: String;&lt;div&gt;- endereco: String;&lt;/div&gt;&lt;div&gt;- horarios: String;&lt;/div&gt;" style="text;strokeColor=none;fillColor=none;align=left;verticalAlign=top;spacingLeft=4;spacingRight=4;overflow=hidden;rotatable=0;points=[[0,0.5],[1,0.5]];portConstraint=eastwest;whiteSpace=wrap;html=1;" vertex="1" parent="k2nZvTiB4ggipAi0p3M2-14">
          <mxGeometry y="26" width="160" height="54" as="geometry" />
        </mxCell>
        <mxCell id="k2nZvTiB4ggipAi0p3M2-16" value="" style="line;strokeWidth=1;fillColor=none;align=left;verticalAlign=middle;spacingTop=-1;spacingLeft=3;spacingRight=3;rotatable=0;labelPosition=right;points=[];portConstraint=eastwest;strokeColor=inherit;" vertex="1" parent="k2nZvTiB4ggipAi0p3M2-14">
          <mxGeometry y="80" width="160" height="8" as="geometry" />
        </mxCell>
        <mxCell id="k2nZvTiB4ggipAi0p3M2-17" value="+cadastraLocal(): void;" style="text;strokeColor=none;fillColor=none;align=left;verticalAlign=top;spacingLeft=4;spacingRight=4;overflow=hidden;rotatable=0;points=[[0,0.5],[1,0.5]];portConstraint=eastwest;whiteSpace=wrap;html=1;" vertex="1" parent="k2nZvTiB4ggipAi0p3M2-14">
          <mxGeometry y="88" width="160" height="26" as="geometry" />
        </mxCell>
        <mxCell id="k2nZvTiB4ggipAi0p3M2-18" value="Resultado" style="swimlane;fontStyle=1;align=center;verticalAlign=top;childLayout=stackLayout;horizontal=1;startSize=26;horizontalStack=0;resizeParent=1;resizeParentMax=0;resizeLast=0;collapsible=1;marginBottom=0;whiteSpace=wrap;html=1;" vertex="1" parent="1">
          <mxGeometry x="270" y="-50" width="160" height="86" as="geometry" />
        </mxCell>
        <mxCell id="k2nZvTiB4ggipAi0p3M2-19" value="- nome: String;" style="text;strokeColor=none;fillColor=none;align=left;verticalAlign=top;spacingLeft=4;spacingRight=4;overflow=hidden;rotatable=0;points=[[0,0.5],[1,0.5]];portConstraint=eastwest;whiteSpace=wrap;html=1;" vertex="1" parent="k2nZvTiB4ggipAi0p3M2-18">
          <mxGeometry y="26" width="160" height="26" as="geometry" />
        </mxCell>
        <mxCell id="k2nZvTiB4ggipAi0p3M2-20" value="" style="line;strokeWidth=1;fillColor=none;align=left;verticalAlign=middle;spacingTop=-1;spacingLeft=3;spacingRight=3;rotatable=0;labelPosition=right;points=[];portConstraint=eastwest;strokeColor=inherit;" vertex="1" parent="k2nZvTiB4ggipAi0p3M2-18">
          <mxGeometry y="52" width="160" height="8" as="geometry" />
        </mxCell>
        <mxCell id="k2nZvTiB4ggipAi0p3M2-21" value="+ geraResultado(): String;" style="text;strokeColor=none;fillColor=none;align=left;verticalAlign=top;spacingLeft=4;spacingRight=4;overflow=hidden;rotatable=0;points=[[0,0.5],[1,0.5]];portConstraint=eastwest;whiteSpace=wrap;html=1;" vertex="1" parent="k2nZvTiB4ggipAi0p3M2-18">
          <mxGeometry y="60" width="160" height="26" as="geometry" />
        </mxCell>
        <mxCell id="k2nZvTiB4ggipAi0p3M2-22" value="Pais" style="swimlane;fontStyle=1;align=center;verticalAlign=top;childLayout=stackLayout;horizontal=1;startSize=26;horizontalStack=0;resizeParent=1;resizeParentMax=0;resizeLast=0;collapsible=1;marginBottom=0;whiteSpace=wrap;html=1;" vertex="1" parent="1">
          <mxGeometry x="-220" y="410" width="185" height="114" as="geometry" />
        </mxCell>
        <mxCell id="k2nZvTiB4ggipAi0p3M2-23" value="- nome: String;&lt;div&gt;- contaAtletas: int;&lt;/div&gt;&lt;div&gt;&lt;br&gt;&lt;/div&gt;" style="text;strokeColor=none;fillColor=none;align=left;verticalAlign=top;spacingLeft=4;spacingRight=4;overflow=hidden;rotatable=0;points=[[0,0.5],[1,0.5]];portConstraint=eastwest;whiteSpace=wrap;html=1;" vertex="1" parent="k2nZvTiB4ggipAi0p3M2-22">
          <mxGeometry y="26" width="185" height="54" as="geometry" />
        </mxCell>
        <mxCell id="k2nZvTiB4ggipAi0p3M2-24" value="" style="line;strokeWidth=1;fillColor=none;align=left;verticalAlign=middle;spacingTop=-1;spacingLeft=3;spacingRight=3;rotatable=0;labelPosition=right;points=[];portConstraint=eastwest;strokeColor=inherit;" vertex="1" parent="k2nZvTiB4ggipAi0p3M2-22">
          <mxGeometry y="80" width="185" height="8" as="geometry" />
        </mxCell>
        <mxCell id="k2nZvTiB4ggipAi0p3M2-25" value="+ adicionaAtleta(atleta): void;" style="text;strokeColor=none;fillColor=none;align=left;verticalAlign=top;spacingLeft=4;spacingRight=4;overflow=hidden;rotatable=0;points=[[0,0.5],[1,0.5]];portConstraint=eastwest;whiteSpace=wrap;html=1;" vertex="1" parent="k2nZvTiB4ggipAi0p3M2-22">
          <mxGeometry y="88" width="185" height="26" as="geometry" />
        </mxCell>
        <mxCell id="k2nZvTiB4ggipAi0p3M2-27" value="" style="endArrow=none;html=1;edgeStyle=orthogonalEdgeStyle;rounded=0;entryX=0.5;entryY=0;entryDx=0;entryDy=0;exitX=0.45;exitY=0.992;exitDx=0;exitDy=0;exitPerimeter=0;" edge="1" parent="1" source="k2nZvTiB4ggipAi0p3M2-9" target="k2nZvTiB4ggipAi0p3M2-22">
          <mxGeometry relative="1" as="geometry">
            <mxPoint x="80" y="420" as="sourcePoint" />
            <mxPoint x="490" y="290" as="targetPoint" />
          </mxGeometry>
        </mxCell>
        <mxCell id="k2nZvTiB4ggipAi0p3M2-28" value="1,N" style="edgeLabel;resizable=0;html=1;align=left;verticalAlign=bottom;" connectable="0" vertex="1" parent="k2nZvTiB4ggipAi0p3M2-27">
          <mxGeometry x="-1" relative="1" as="geometry">
            <mxPoint x="-25" y="21" as="offset" />
          </mxGeometry>
        </mxCell>
        <mxCell id="k2nZvTiB4ggipAi0p3M2-29" value="1,N" style="edgeLabel;resizable=0;html=1;align=right;verticalAlign=bottom;" connectable="0" vertex="1" parent="k2nZvTiB4ggipAi0p3M2-27">
          <mxGeometry x="1" relative="1" as="geometry" />
        </mxCell>
        <mxCell id="k2nZvTiB4ggipAi0p3M2-30" value="" style="endArrow=none;html=1;edgeStyle=orthogonalEdgeStyle;rounded=0;entryX=0;entryY=0.5;entryDx=0;entryDy=0;exitX=1.003;exitY=0.847;exitDx=0;exitDy=0;exitPerimeter=0;" edge="1" parent="1" source="k2nZvTiB4ggipAi0p3M2-7" target="k2nZvTiB4ggipAi0p3M2-11">
          <mxGeometry relative="1" as="geometry">
            <mxPoint x="430" y="210" as="sourcePoint" />
            <mxPoint x="427" y="341" as="targetPoint" />
            <Array as="points">
              <mxPoint x="31" y="183" />
            </Array>
          </mxGeometry>
        </mxCell>
        <mxCell id="k2nZvTiB4ggipAi0p3M2-31" value="1,N" style="edgeLabel;resizable=0;html=1;align=left;verticalAlign=bottom;" connectable="0" vertex="1" parent="k2nZvTiB4ggipAi0p3M2-30">
          <mxGeometry x="-1" relative="1" as="geometry">
            <mxPoint x="5" y="-3" as="offset" />
          </mxGeometry>
        </mxCell>
        <mxCell id="k2nZvTiB4ggipAi0p3M2-32" value="1,N" style="edgeLabel;resizable=0;html=1;align=right;verticalAlign=bottom;" connectable="0" vertex="1" parent="k2nZvTiB4ggipAi0p3M2-30">
          <mxGeometry x="1" relative="1" as="geometry">
            <mxPoint x="-12" as="offset" />
          </mxGeometry>
        </mxCell>
        <mxCell id="k2nZvTiB4ggipAi0p3M2-36" value="" style="endArrow=none;html=1;edgeStyle=orthogonalEdgeStyle;rounded=0;exitX=0.509;exitY=0.985;exitDx=0;exitDy=0;exitPerimeter=0;entryX=0.513;entryY=1.004;entryDx=0;entryDy=0;entryPerimeter=0;" edge="1" parent="1" source="k2nZvTiB4ggipAi0p3M2-13" target="k2nZvTiB4ggipAi0p3M2-17">
          <mxGeometry relative="1" as="geometry">
            <mxPoint x="600" y="210" as="sourcePoint" />
            <mxPoint x="477" y="331" as="targetPoint" />
            <Array as="points" />
          </mxGeometry>
        </mxCell>
        <mxCell id="k2nZvTiB4ggipAi0p3M2-37" value="1,N" style="edgeLabel;resizable=0;html=1;align=left;verticalAlign=bottom;" connectable="0" vertex="1" parent="k2nZvTiB4ggipAi0p3M2-36">
          <mxGeometry x="-1" relative="1" as="geometry">
            <mxPoint x="-25" y="21" as="offset" />
          </mxGeometry>
        </mxCell>
        <mxCell id="k2nZvTiB4ggipAi0p3M2-38" value="1,N" style="edgeLabel;resizable=0;html=1;align=right;verticalAlign=bottom;" connectable="0" vertex="1" parent="k2nZvTiB4ggipAi0p3M2-36">
          <mxGeometry x="1" relative="1" as="geometry">
            <mxPoint x="-12" y="26" as="offset" />
          </mxGeometry>
        </mxCell>
        <mxCell id="k2nZvTiB4ggipAi0p3M2-39" value="" style="endArrow=none;html=1;edgeStyle=orthogonalEdgeStyle;rounded=0;entryX=0.5;entryY=0;entryDx=0;entryDy=0;exitX=1;exitY=0.5;exitDx=0;exitDy=0;" edge="1" parent="1" source="k2nZvTiB4ggipAi0p3M2-19" target="k2nZvTiB4ggipAi0p3M2-10">
          <mxGeometry relative="1" as="geometry">
            <mxPoint x="176" y="399" as="sourcePoint" />
            <mxPoint x="173" y="510" as="targetPoint" />
          </mxGeometry>
        </mxCell>
        <mxCell id="k2nZvTiB4ggipAi0p3M2-40" value="1" style="edgeLabel;resizable=0;html=1;align=left;verticalAlign=bottom;" connectable="0" vertex="1" parent="k2nZvTiB4ggipAi0p3M2-39">
          <mxGeometry x="-1" relative="1" as="geometry">
            <mxPoint x="30" y="11" as="offset" />
          </mxGeometry>
        </mxCell>
        <mxCell id="k2nZvTiB4ggipAi0p3M2-41" value="1" style="edgeLabel;resizable=0;html=1;align=right;verticalAlign=bottom;" connectable="0" vertex="1" parent="k2nZvTiB4ggipAi0p3M2-39">
          <mxGeometry x="1" relative="1" as="geometry">
            <mxPoint x="20" y="-10" as="offset" />
          </mxGeometry>
        </mxCell>
      </root>
    </mxGraphModel>
  </diagram>
</mxfile>
